<?xml version="1.0" encoding="utf-8"?>
<!-- Generator: Adobe Illustrator 18.1.0, SVG Export Plug-In . SVG Version: 6.00 Build 0)  -->
<!DOCTYPE svg PUBLIC "-//W3C//DTD SVG 1.1//EN" "http://www.w3.org/Graphics/SVG/1.1/DTD/svg11.dtd">
<svg version="1.1" id="Layer_1" xmlns="http://www.w3.org/2000/svg" xmlns:xlink="http://www.w3.org/1999/xlink" x="0px" y="0px"
	 viewBox="0 0 400 600" enable-background="new 0 0 400 600" xml:space="preserve">
<g>
	<g>
		<path d="M142.5,322.1l-1.5,8.8l-0.4,2.6l1.9,1.8l6.4,6.2l-8.8,1.3l-2.6,0.4l-1.1,2.4l-3.9,8l-4-8l-1.2-2.4l-2.6-0.4l-8.8-1.2
			l6.3-6.2l1.9-1.8l-0.5-2.6l-1.6-8.8l7.9,4.1l2.3,1.2l2.3-1.2L142.5,322.1 M149.1,313l-16.8,9l-16.9-8.8l3.3,18.7l-13.5,13.4
			l18.8,2.6l8.5,17l8.3-17.1l18.8-2.8L146,331.7L149.1,313L149.1,313z"/>
	</g>
	<path fill="none" stroke="#000000" stroke-width="3" stroke-miterlimit="10" d="M151.6,303.8c-1.7-1.7-5.7-2.2-10.8,2.9
		c-0.9,0.9-1.7,1.8-2.4,2.7c0.1-0.9,0.1-1.9,0.1-2.8c0-7.2-3.6-9.8-6.1-9.8s-6.1,2.6-6.1,9.8c0,1,0,1.9,0.1,2.8
		c-0.7-0.9-1.5-1.8-2.4-2.7c-5.1-5.1-9.1-4.6-10.8-2.9c-1.7,1.7,1,7.3,6.2,12.4c4.8,4.8,10,7.5,12.1,6.4c0.3,0.2,0.6,0.3,0.9,0.3
		s0.6-0.1,0.9-0.3c2.1,1.1,7.3-1.6,12.1-6.4C150.6,311.1,153.4,305.5,151.6,303.8z"/>
	<path fill="none" stroke="#000000" stroke-width="3" stroke-miterlimit="10" d="M169.3,344.5c1.3-2.1,0.7-6-5.8-9.6
		c-1.1-0.6-2.3-1.2-3.4-1.7c0.9-0.2,1.9-0.3,2.9-0.6c7.3-1.8,9-5.9,8.3-8.2c-0.7-2.3-4.3-5.2-11.6-3.4c-1,0.2-1.9,0.5-2.8,0.8
		c0.7-0.9,1.4-1.9,2-3c3.8-6.2,2.2-9.8,0-11c-2.2-1.2-7.1,2.8-10.8,8.9c-3.5,5.8-4.9,11.4-3.2,13.1c-0.1,0.3-0.1,0.7,0,1
		c0.1,0.3,0.3,2.4,0.6,2.6c-0.6,2.2,3.6,4.8,9.8,8.2C161.7,345.2,168,346.5,169.3,344.5z"/>
	<path fill="none" stroke="#000000" stroke-width="3" stroke-miterlimit="10" d="M95.1,345c-1.3-2.2-0.8-6.2,5.9-9.9
		c1.1-0.6,2.3-1.2,3.4-1.7c-1-0.2-1.9-0.4-2.9-0.6c-7.5-1.9-9.2-6.1-8.5-8.6s4.3-5.3,11.8-3.4c1,0.3,2,0.5,2.9,0.8
		c-0.7-1-1.4-2-2.1-3.1c-3.9-6.4-2.3-10.2-0.1-11.4c2.2-1.3,7.2,2.9,11.1,9.3c3.7,6,5.1,11.9,3.4,13.6c0.1,0.3,0.1,0.7,0.1,1
		c-0.1,0.3-0.3,2.4-0.6,2.6c-0.6,2.4-3.6,4.9-9.9,8.5C102.9,345.9,96.4,347.2,95.1,345z"/>
	<path fill="none" stroke="#000000" stroke-width="3" stroke-miterlimit="10" d="M135.7,372.6c2.4,0.6,6.1-1,7.8-8.1
		c0.3-1.2,0.5-2.4,0.7-3.5c0.4,0.8,0.9,1.6,1.5,2.5c4,6.2,8.5,6.5,10.7,5.3c2.1-1.3,3.9-5.4-0.1-11.6c-0.5-0.8-1.1-1.6-1.6-2.4
		c1.1,0.4,2.3,0.7,3.6,1c7.3,1.7,10.4-0.8,11-3.1c0.6-2.4-4.9-5.7-12.2-7.4c-6.8-1.6-12.8-1.2-14,0.8c-0.4,0-0.7,0.1-1,0.2
		c-0.3,0.2-0.5-1.4-0.6-1.1c-2.4,0.1-5.4,6.9-7,13.6C132.6,365.8,133.3,372,135.7,372.6z"/>
	<path fill="none" stroke="#000000" stroke-width="3" stroke-miterlimit="10" d="M129.7,372.6c-2.4,0.6-6.1-1-7.8-8.1
		c-0.3-1.2-0.5-2.4-0.7-3.5c-0.4,0.8-0.9,1.6-1.4,2.5c-3.9,6.1-8.5,6.5-10.6,5.2c-2.1-1.3-3.9-5.4,0-11.5c0.5-0.8,1.1-1.6,1.6-2.3
		c-1.1,0.4-2.3,0.7-3.6,1c-7.3,1.7-10.4-0.8-11-3.2c-0.6-2.4,4.8-5.6,12.1-7.3c6.8-1.6,12.8-1.2,14,0.8c0.4,0,0.7,0.1,1,0.2
		c0.3,0.2,0.5-1.4,0.6-1.1c2.4,0.1,5.4,6.9,7,13.5C132.7,365.9,132.1,372.1,129.7,372.6z"/>
	<path d="M132.2,318c0,0-5.3-15.9,0.3-15.8S132.2,318,132.2,318z"/>
	<path d="M138.2,315.9c0,0,6.1-13.5,10-9.6C152,310.3,138.2,315.9,138.2,315.9z"/>
	<path d="M126.8,316.3c0,0-13.5-6.1-9.6-10C121.2,302.4,126.8,316.3,126.8,316.3z"/>
	<path d="M149.3,329.8c0,0,14.1-9,15.4-3.6C166,331.5,149.3,329.8,149.3,329.8z"/>
	<path d="M152.8,335.1c0,0,14.6,2.5,11.7,7.3C161.7,347.1,152.8,335.1,152.8,335.1z"/>
	<path d="M149.6,324.2c0,0,2.5-14.6,7.3-11.7C161.7,315.3,149.6,324.2,149.6,324.2z"/>
	<path d="M115.8,329.8c0,0-14.1-9-15.4-3.6C99,331.5,115.8,329.8,115.8,329.8z"/>
	<path d="M112.3,335.1c0,0-14.6,2.5-11.7,7.3S112.3,335.1,112.3,335.1z"/>
	<path d="M115.4,324.2c0,0-2.5-14.6-7.3-11.7C103.4,315.3,115.4,324.2,115.4,324.2z"/>
	<path d="M121.6,350.8c0,0-13.6,9.6-9.2,12.9C116.9,366.9,121.6,350.8,121.6,350.8z"/>
	<path d="M125.2,356c0,0-3.1,14.5,2.3,13.6S125.2,356,125.2,356z"/>
	<path d="M116.3,349c0,0-14.5-3.1-13.6,2.3C103.5,356.8,116.3,349,116.3,349z"/>
	<path d="M143.3,350.8c0,0,13.6,9.6,9.2,12.9C148,366.9,143.3,350.8,143.3,350.8z"/>
	<path d="M139.7,356c0,0,3.1,14.5-2.3,13.6S139.7,356,139.7,356z"/>
	<path d="M148.6,349c0,0,14.5-3.1,13.6,2.3C161.4,356.8,148.6,349,148.6,349z"/>
</g>
<g>
	<g>
		<path d="M272.5,322.1l-1.5,8.8l-0.4,2.6l1.9,1.8l6.4,6.2l-8.8,1.3l-2.6,0.4l-1.1,2.4l-3.9,8l-4-8l-1.2-2.4l-2.6-0.4l-8.8-1.2
			l6.3-6.2l1.9-1.8l-0.5-2.6l-1.6-8.8l7.9,4.1l2.3,1.2l2.3-1.2L272.5,322.1 M279.1,313l-16.8,9l-16.9-8.8l3.3,18.7l-13.5,13.4
			l18.8,2.6l8.5,17l8.3-17.1l18.8-2.8L276,331.7L279.1,313L279.1,313z"/>
	</g>
	<path fill="none" stroke="#000000" stroke-width="3" stroke-miterlimit="10" d="M281.6,303.8c-1.7-1.7-5.7-2.2-10.8,2.9
		c-0.9,0.9-1.7,1.8-2.4,2.7c0.1-0.9,0.1-1.9,0.1-2.8c0-7.2-3.6-9.8-6.1-9.8s-6.1,2.6-6.1,9.8c0,1,0,1.9,0.1,2.8
		c-0.7-0.9-1.5-1.8-2.4-2.7c-5.1-5.1-9.1-4.6-10.8-2.9c-1.7,1.7,1,7.3,6.2,12.4c4.8,4.8,10,7.5,12.1,6.4c0.3,0.2,0.6,0.3,0.9,0.3
		s0.6-0.1,0.9-0.3c2.1,1.1,7.3-1.6,12.1-6.4C280.6,311.1,283.4,305.5,281.6,303.8z"/>
	<path fill="none" stroke="#000000" stroke-width="3" stroke-miterlimit="10" d="M299.3,344.5c1.3-2.1,0.7-6-5.8-9.6
		c-1.1-0.6-2.3-1.2-3.4-1.7c0.9-0.2,1.9-0.3,2.9-0.6c7.3-1.8,9-5.9,8.3-8.2c-0.7-2.3-4.3-5.2-11.6-3.4c-1,0.2-1.9,0.5-2.8,0.8
		c0.7-0.9,1.4-1.9,2-3c3.8-6.2,2.2-9.8,0-11c-2.2-1.2-7.1,2.8-10.8,8.9c-3.5,5.8-4.9,11.4-3.2,13.1c-0.1,0.3-0.1,0.7,0,1
		c0.1,0.3,0.3,2.4,0.6,2.6c-0.6,2.2,3.6,4.8,9.8,8.2C291.7,345.2,298,346.5,299.3,344.5z"/>
	<path fill="none" stroke="#000000" stroke-width="3" stroke-miterlimit="10" d="M225.1,345c-1.3-2.2-0.8-6.2,5.9-9.9
		c1.1-0.6,2.3-1.2,3.4-1.7c-1-0.2-1.9-0.4-2.9-0.6c-7.5-1.9-9.2-6.1-8.5-8.6s4.3-5.3,11.8-3.4c1,0.3,2,0.5,2.9,0.8
		c-0.7-1-1.4-2-2.1-3.1c-3.9-6.4-2.3-10.2-0.1-11.4c2.2-1.3,7.2,2.9,11.1,9.3c3.7,6,5.1,11.9,3.4,13.6c0.1,0.3,0.1,0.7,0.1,1
		s-0.3,2.4-0.6,2.6c-0.6,2.4-3.6,4.9-9.9,8.5C232.9,345.9,226.4,347.2,225.1,345z"/>
	<path fill="none" stroke="#000000" stroke-width="3" stroke-miterlimit="10" d="M265.7,372.6c2.4,0.6,6.1-1,7.8-8.1
		c0.3-1.2,0.5-2.4,0.7-3.5c0.4,0.8,0.9,1.6,1.5,2.5c4,6.2,8.5,6.5,10.7,5.3c2.1-1.3,3.9-5.4-0.1-11.6c-0.5-0.8-1.1-1.6-1.6-2.4
		c1.1,0.4,2.3,0.7,3.6,1c7.3,1.7,10.4-0.8,11-3.1c0.6-2.4-4.9-5.7-12.2-7.4c-6.8-1.6-12.8-1.2-14,0.8c-0.4,0-0.7,0.1-1,0.2
		c-0.3,0.2-0.5-1.4-0.6-1.1c-2.4,0.1-5.4,6.9-7,13.6C262.6,365.8,263.3,372,265.7,372.6z"/>
	<path fill="none" stroke="#000000" stroke-width="3" stroke-miterlimit="10" d="M259.7,372.6c-2.4,0.6-6.1-1-7.8-8.1
		c-0.3-1.2-0.5-2.4-0.7-3.5c-0.4,0.8-0.9,1.6-1.4,2.5c-3.9,6.1-8.5,6.5-10.6,5.2c-2.1-1.3-3.9-5.4,0-11.5c0.5-0.8,1.1-1.6,1.6-2.3
		c-1.1,0.4-2.3,0.7-3.6,1c-7.3,1.7-10.4-0.8-11-3.2c-0.6-2.4,4.8-5.6,12.1-7.3c6.8-1.6,12.8-1.2,14,0.8c0.4,0,0.7,0.1,1,0.2
		c0.3,0.2,0.5-1.4,0.6-1.1c2.4,0.1,5.4,6.9,7,13.5C262.7,365.9,262.1,372.1,259.7,372.6z"/>
	<path d="M262.2,318c0,0-5.3-15.9,0.3-15.8S262.2,318,262.2,318z"/>
	<path d="M268.2,315.9c0,0,6.1-13.5,10-9.6C282,310.3,268.2,315.9,268.2,315.9z"/>
	<path d="M256.8,316.3c0,0-13.5-6.1-9.6-10C251.2,302.4,256.8,316.3,256.8,316.3z"/>
	<path d="M279.3,329.8c0,0,14.1-9,15.4-3.6S279.3,329.8,279.3,329.8z"/>
	<path d="M282.8,335.1c0,0,14.6,2.5,11.7,7.3C291.7,347.1,282.8,335.1,282.8,335.1z"/>
	<path d="M279.6,324.2c0,0,2.5-14.6,7.3-11.7C291.7,315.3,279.6,324.2,279.6,324.2z"/>
	<path d="M245.8,329.8c0,0-14.1-9-15.4-3.6C229,331.5,245.8,329.8,245.8,329.8z"/>
	<path d="M242.3,335.1c0,0-14.6,2.5-11.7,7.3C233.4,347.1,242.3,335.1,242.3,335.1z"/>
	<path d="M245.4,324.2c0,0-2.5-14.6-7.3-11.7C233.4,315.3,245.4,324.2,245.4,324.2z"/>
	<path d="M251.6,350.8c0,0-13.6,9.6-9.2,12.9C246.9,366.9,251.6,350.8,251.6,350.8z"/>
	<path d="M255.2,356c0,0-3.1,14.5,2.3,13.6C263,368.8,255.2,356,255.2,356z"/>
	<path d="M246.3,349c0,0-14.5-3.1-13.6,2.3C233.5,356.8,246.3,349,246.3,349z"/>
	<path d="M273.3,350.8c0,0,13.6,9.6,9.2,12.9C278,366.9,273.3,350.8,273.3,350.8z"/>
	<path d="M269.7,356c0,0,3.1,14.5-2.3,13.6C261.9,368.8,269.7,356,269.7,356z"/>
	<path d="M278.6,349c0,0,14.5-3.1,13.6,2.3C291.4,356.8,278.6,349,278.6,349z"/>
</g>
</svg>
