<?xml version="1.0" encoding="utf-8"?>
<!-- Generator: Adobe Illustrator 18.1.0, SVG Export Plug-In . SVG Version: 6.00 Build 0)  -->
<!DOCTYPE svg PUBLIC "-//W3C//DTD SVG 1.1//EN" "http://www.w3.org/Graphics/SVG/1.1/DTD/svg11.dtd">
<svg version="1.1" id="Layer_1" xmlns="http://www.w3.org/2000/svg" xmlns:xlink="http://www.w3.org/1999/xlink" x="0px" y="0px"
	 viewBox="0 0 400 600" enable-background="new 0 0 400 600" xml:space="preserve">
<g id="estrellitas-skull" transform="translate(5.000000, 5.000000)" sketch:type="MSLayerGroup">
	<g id="craneo">
		<path fill="#010101" d="M226.6,464.9h-67c-3.7,0-6.8-3-6.8-6.8v-12.6h-50.9c-15.9,0-32-12-36.6-27.2L7.6,225.7
			c-2.5-8.2-1.2-16.1,3.5-21.9c1.8-32,21.4-61.7,55.5-84c34.2-22.3,79.3-34.6,127.1-34.6c47.7,0,92.9,12.3,127.1,34.5
			c34.1,22.2,53.8,52,55.5,84c4.7,5.8,6,13.6,3.5,21.9l-57.8,192.6c-4.6,15.3-20.6,27.2-36.6,27.2h-52.2v12.6
			C233.3,461.8,230.3,464.9,226.6,464.9z M162.8,454.9h60.6v-19.4h62.2c11.4,0,23.7-9.2,27-20.1l57.8-192.6
			c1.6-5.4,0.7-10.3-2.4-13.5l-1.4-1.4l-0.1-2c-1-29.3-19.1-56.9-51.1-77.7c-32.6-21.2-75.8-32.9-121.6-32.9
			c-45.8,0-89,11.7-121.6,32.9C40.1,149,22,176.6,21,206l-0.1,2l-1.4,1.4c-3.2,3.2-4,8.1-2.4,13.5l57.8,192.6
			c3.3,10.9,15.6,20.1,27,20.1h60.9V454.9z"/>
	</g>
	<g id="cuernos" transform="translate(42.000000, 23.000000)" sketch:type="MSShapeGroup">
		<g id="Path-27">
			<path fill="#010101" d="M78.6,173.9c-4,0-7.2-5-9.9-9.1c-20.8-32.5-63-45.4-63.4-45.5l2.9-9.6c1.7,0.5,37.6,11.5,61.4,39.6
				c-5-15.6-13.4-38.6-21.6-59.9l9.3-3.6c0.1,0.2,7.8,20,14.8,39.9c4.2,11.7,7.3,21.2,9.3,28.1c3,10.4,4.7,17-0.3,19.5
				C80.3,173.7,79.4,173.9,78.6,173.9z"/>
		</g>
		<g id="Path-28_1_">
			<path fill="#010101" d="M224.5,173.9c-0.8,0-1.7-0.2-2.5-0.7c-5-2.5-3.4-9.1-0.3-19.5c2-6.9,5.1-16.4,9.3-28.1
				c7.1-19.9,14.8-39.7,14.8-39.9l9.3,3.6c-8.3,21.2-16.6,44.3-21.6,59.9c23.8-28,59.7-39.1,61.4-39.6l2.9,9.6
				c-0.4,0.1-42.6,13.2-63.4,45.5C231.7,168.9,228.6,173.9,224.5,173.9z"/>
		</g>
	</g>
	<g id="espiral" transform="translate(139.000000, 38.000000)" sketch:type="MSShapeGroup">
		<g id="Path-29_1_">
			<path fill="#010101" d="M61.7,159.9h-10c0-5.6,0.5-55.6,17.1-70.3c7.9-7,17.3-9.7,26.6-7.7c8.9,1.9,16.6,8.1,20.1,16
				c6.5,14.6-1.1,28.3-11.9,34.2c-6.9,3.8-16.6,2.9-22.6-2.1c-3.6-3-8.9-10-4.4-23.3l9.5,3.2c-1.4,4-2.2,9.4,1.4,12.4
				c3.1,2.6,8.4,2.6,11.3,1c6.6-3.6,11.8-11.9,7.5-21.4c-2.2-5-7.4-9-13.1-10.3c-4.3-0.9-10.9-0.8-17.8,5.4
				C64.2,107,61.7,145.8,61.7,159.9z"/>
		</g>
		<g id="Path-30">
			<path fill="#010101" d="M46.2,159.9c0-14.1-2.5-52.9-13.8-62.9c-6.9-6.1-13.5-6.3-17.8-5.4C8.8,92.9,3.7,97,1.5,102
				c-4.2,9.5,0.9,17.7,7.5,21.4c3,1.6,8.2,1.6,11.3-1c3.6-3,2.7-8.4,1.4-12.4l9.5-3.2c4.5,13.3-0.8,20.3-4.4,23.3
				c-6,5-15.7,5.9-22.6,2.1c-10.8-5.9-18.4-19.6-11.9-34.2c3.5-7.9,11.2-14.1,20.1-16c9.3-2,18.7,0.7,26.6,7.7
				c7.3,6.5,12.4,20.5,15.1,41.5c1.9,15.1,2,28.3,2,28.8L46.2,159.9z"/>
		</g>
	</g>
	<g id="chiva" transform="translate(133.000000, 399.000000)" sketch:type="MSShapeGroup">
		<g id="Path-31">
			<path fill="#010101" d="M86,143.5H57.3v-10H86c24.3,0,33.4-67,34.7-90.5l10,0.5c-0.1,1-1.4,24.5-7,48.5
				C115.6,126.2,102.9,143.5,86,143.5z"/>
		</g>
		<g id="Path-32">
			<path fill="#010101" d="M63.9,143.5H35.2c-16.9,0-29.6-17.3-37.7-51.5c-5.6-24-7-47.5-7-48.5l10-0.5
				c1.3,23.5,10.4,90.5,34.7,90.5h28.7V143.5z"/>
		</g>
	</g>
	<g id="teeth" transform="translate(172.000000, 404.000000)" sketch:type="MSShapeGroup">
		<g id="Line">
			<rect x="-9.5" y="53.1" fill="#010101" width="10" height="23.2"/>
		</g>
		<g id="Line-2">
			<rect x="8.1" y="53.1" fill="#010101" width="10" height="23.2"/>
		</g>
		<g id="Line-3">
			<rect x="25.7" y="53.1" fill="#010101" width="10" height="23.2"/>
		</g>
		<g id="Line-4">
			<rect x="43.4" y="53.1" fill="#010101" width="10" height="23.2"/>
		</g>
		<g id="Line-2_1_">
			<rect x="0.2" y="38.1" fill="#010101" width="10" height="18.2"/>
		</g>
		<g id="Line-3_1_">
			<rect x="17.8" y="38.1" fill="#010101" width="10" height="18.2"/>
		</g>
		<g id="Line-4_1_">
			<rect x="35.5" y="38.1" fill="#010101" width="10" height="18.2"/>
		</g>
	</g>
	<g id="chiva_1_" transform="translate(153.000000, 464.000000)" sketch:type="MSShapeGroup">
		<g id="Path-36">
			<path fill="#010101" d="M-6.3,61.7l-0.7-10c0.1,0,11.7-0.9,23-3.9c12.7-3.4,20-8,20-12.7h10c0,10.1-9.3,17.6-27.5,22.4
				C6.2,60.8-5.8,61.7-6.3,61.7z"/>
		</g>
		<g id="Path-37">
			<path fill="#010101" d="M89.1,61.7c-0.5,0-12.5-1-24.7-4.2c-18.3-4.8-27.5-12.4-27.5-22.4h10c0,4.7,7.3,9.4,20,12.7
				c11.3,3,22.9,3.9,23,3.9L89.1,61.7z"/>
		</g>
	</g>
	<g id="cheeks" transform="translate(55.000000, 333.000000)" sketch:type="MSShapeGroup">
		<g id="Path-192">
			<path fill="#010101" d="M68.2,107c0-0.2-0.3-22.9-15.2-37.4C37.3,54.3,24.4,54.2,6.2,59.4l-2.7-9.6c20.8-5.9,37.5-5.8,56.4,12.7
				C78,80,78.2,105.9,78.2,107L68.2,107l5,0L68.2,107z"/>
		</g>
		<g id="Path-193">
			<path fill="#010101" d="M208.3,107l-10,0c0-1.1,0.2-27,18.3-44.6c19-18.5,35.7-18.6,56.4-12.7l-2.7,9.6
				c-18.2-5.1-31.1-5-46.8,10.2C208.6,84.2,208.3,106.8,208.3,107z"/>
		</g>
	</g>
</g>
</svg>
