<?xml version="1.0" encoding="utf-8"?>
<!-- Generator: Adobe Illustrator 18.1.0, SVG Export Plug-In . SVG Version: 6.00 Build 0)  -->
<!DOCTYPE svg PUBLIC "-//W3C//DTD SVG 1.1//EN" "http://www.w3.org/Graphics/SVG/1.1/DTD/svg11.dtd">
<svg version="1.1" id="Layer_1" xmlns="http://www.w3.org/2000/svg" xmlns:xlink="http://www.w3.org/1999/xlink" x="0px" y="0px"
	 viewBox="0 0 400 600" enable-background="new 0 0 400 600" xml:space="preserve">
<g>
	<g id="Path-219-_x2B_-Path-220-_x2B_-Path-221" transform="translate(376.000000, 251.000000)" sketch:type="MSShapeGroup">
		<g id="Path-219_3_">
			<path fill="#010101" d="M-30.7,112.6l-1.3-8.9c6.6-1,13.5-3.2,15.7-4.9c-1.1-1.1-4.7-3.7-15.7-7.3l2.8-8.5
				C-13.1,88.3-6.4,93.3-7,99.6C-7.7,108-22.1,111.3-30.7,112.6z"/>
		</g>
		<g id="Path-220">
			<path fill="#010101" d="M-28.2,87.5l-1.2-8.9c6.6-0.9,13.6-2.9,15.8-4.6c-1.1-1.1-4.6-3.8-15.6-7.6l3-8.5
				c16.1,5.6,22.6,10.7,22,17C-5.1,83.3-19.6,86.4-28.2,87.5z"/>
		</g>
		<g id="Path-221">
			<path fill="#010101" d="M-27.2,62.6l-1.2-8.9c6.6-0.9,13.6-2.9,15.8-4.6c-1.1-1.1-4.6-3.8-15.6-7.6l3-8.5
				c16.1,5.6,22.6,10.7,22,17C-4.1,58.3-18.7,61.5-27.2,62.6z"/>
		</g>
	</g>
	
		<g id="Path-219-_x2B_-Path-220-_x2B_-Path-222" transform="translate(65.500000, 294.500000) scale(-1, 1) translate(-65.500000, -294.500000) translate(47.000000, 251.000000)" sketch:type="MSShapeGroup">
		<g id="Path-219_2_">
			<path fill="#010101" d="M28.7,112.6c8.6-1.3,23-4.6,23.7-13C53,93.3,46.3,88.3,30.1,83l-2.8,8.5c11,3.6,14.6,6.2,15.7,7.3
				c-2.2,1.7-9.1,3.9-15.7,4.9L28.7,112.6z"/>
		</g>
		<g id="Path-220_1_">
			<path fill="#010101" d="M31.2,87.5c8.6-1.1,23.1-4.2,23.9-12.6c0.7-6.3-5.9-11.4-22-17l-3,8.5c11,3.8,14.5,6.5,15.6,7.6
				c-2.2,1.7-9.1,3.7-15.8,4.6L31.2,87.5z"/>
		</g>
		<g id="Path-221_1_">
			<path fill="#010101" d="M32.2,62.6c8.6-1.1,23.1-4.2,23.9-12.6c0.7-6.3-5.9-11.4-22-17l-3,8.5c11,3.8,14.5,6.5,15.6,7.6
				c-2.2,1.7-9.1,3.7-15.8,4.6L32.2,62.6z"/>
		</g>
	</g>
	<g id="Path-309_3_">
		<path fill="none" stroke="#010101" stroke-width="9" d="M345.2,253"/>
	</g>
	<g id="Path-309_2_">
		<path fill="none" stroke="#010101" stroke-width="9" d="M201.3,101.8"/>
	</g>
	<g id="Path-276-_x2B_-Path-278">
		<g id="Path-277-_x2B_-Path-278">
			<g id="Path-277">
				<path fill="#010101" d="M197.7,426.6v-9c0.1,0,12.4,0,33-0.4l0.1,0l0.1,0c8.4,0.2,16.4,0.1,18.9-2.5c2.3-2.3,2.1-8.9,1.7-19
					c-0.1-4.4-0.3-9.4-0.3-15.3V376h4.5c58.1,0,74.4-8.1,79-12.9c1.4-1.5,2-2.9,1.9-4.6l0-0.3l0-0.3c3.3-33.1,11.8-208.4,0.4-232.7
					c-1.9-4.1-12.8-14.3-71.8-18.8c-33.4-2.6-65.7-2-66-2l-0.2-9c0.3,0,33.1-0.6,66.8,2c20,1.5,36.4,3.9,48.9,7
					c17,4.2,26.9,9.7,30.3,17c12.8,27.3,3.5,205.7,0.4,237.1c0.1,4-1.4,7.8-4.4,10.9c-9.7,10.2-36.3,15.3-81,15.7
					c0.1,3.9,0.2,7.3,0.3,10.5c0.4,12.8,0.7,20.6-4.4,25.6c-4.7,4.7-12.6,5.4-25.4,5.1C210.2,426.6,197.8,426.6,197.7,426.6z"/>
			</g>
			<g id="Path-278">
				<path fill="#010101" d="M202.3,426.6c-0.1,0-12.5,0-33-0.4c-12.9,0.3-20.8-0.4-25.4-5.1c-5-5-4.8-12.8-4.4-25.6
					c0.1-3.2,0.2-6.6,0.3-10.5c-44.8-0.3-71.3-5.5-81-15.7c-3-3.1-4.5-6.9-4.4-10.9c-3.1-31.4-12.4-209.7,0.4-237.1
					c3.4-7.3,13.3-12.9,30.3-17c12.5-3.1,29-5.4,48.9-7c33.8-2.6,66.5-2,66.8-2l-0.2,9c-0.3,0-32.7-0.6-66,2
					c-58.9,4.6-69.8,14.7-71.7,18.8c-11.4,24.3-2.9,199.6,0.4,232.7l0,0.3l0,0.3c-0.1,1.7,0.5,3.1,1.9,4.6c4.6,4.8,21,12.9,79,12.9
					h4.5v4.5c0,5.9-0.2,10.9-0.3,15.3c-0.3,10-0.5,16.7,1.7,19c2.5,2.5,10.6,2.7,18.9,2.5l0.1,0l0.1,0c20.6,0.4,32.8,0.4,33,0.4
					V426.6z"/>
			</g>
		</g>
		<g id="Path-278-_x2B_-Path-279" transform="translate(75.827869, 305.606618)">
			<g id="Path-278_1_">
				<path fill="#010101" d="M83.6,155.9c-9.1,0-21.2-0.5-30.5-3.2l-1.5-0.4l-0.9-1.2c-1.2-1.7-3.5-4.8-6.3-40.5
					c-1.4-17.1-2.2-33.6-2.2-33.8l9-0.4c1.4,28.7,4.1,60.5,6.4,68.3c11.3,2.7,26.6,2.4,34.2,2.2c1.5,0,2.8-0.1,3.7-0.1
					c1.8,0,3.6,0,4.1-0.5c0.4-0.4,1.7-2.6,1.1-11.6l-0.3-4.5l4.5-0.3c11.4-0.8,19.6-0.4,19.9-0.4l-0.4,9c-0.1,0-5.9-0.3-14.4,0.1
					c0.1,6.8-1.1,11.1-3.7,13.9c-3.1,3.4-7.3,3.4-10.7,3.4c-0.9,0-2.1,0-3.5,0.1C89.7,155.8,86.8,155.9,83.6,155.9z"/>
			</g>
			<g id="Path-279">
				<path fill="#010101" d="M164.9,155.9c-3.2,0-6.1-0.1-8.3-0.1c-1.4,0-2.6-0.1-3.5-0.1c-3.4,0-7.5,0-10.7-3.4
					c-2.6-2.8-3.7-7-3.7-13.9c-8.5-0.4-14.4-0.1-14.4-0.1l-0.4-9c0.3,0,8.5-0.4,19.9,0.4l4.5,0.3l-0.3,4.5c-0.6,9,0.7,11.2,1.1,11.6
					c0.5,0.5,2.3,0.5,4.1,0.5c0.9,0,2.2,0,3.7,0.1c7.6,0.2,22.9,0.5,34.2-2.2c2.3-7.8,5-39.6,6.4-68.3l9,0.4
					c0,0.2-0.8,16.7-2.2,33.8c-2.8,35.7-5.1,38.8-6.3,40.5l-0.9,1.2l-1.5,0.4C186,155.4,174,155.9,164.9,155.9z"/>
			</g>
		</g>
		<g id="Path-280-_x2B_-Path-281" transform="translate(47.065574, 302.987132)">
			<g id="Path-280">
				<path fill="#010101" d="M127.3,240l-1.3-0.8c-2-1.4-4.1-2.8-6.2-4.2c-33.9-22.8-76-51.2-75.2-74.8l0-0.1
					c2-34.1-0.4-82.2-0.4-82.7l9-0.4c0,0.5,2.4,49.1,0.4,83.6c-0.6,18.7,42.6,47.7,71.2,67c1.7,1.1,3.4,2.3,5,3.4
					c8.3-0.3,23.8-0.3,24.5-0.3v9c-0.2,0-18.1,0-25.6,0.4L127.3,240z"/>
			</g>
			<g id="Path-281">
				<path fill="#010101" d="M178.2,240l-1.5-0.1c-7.5-0.4-29.4-0.4-29.6-0.4v-9c0.9,0,19.9,0,28.5,0.3c1.6-1.1,3.3-2.2,5-3.4
					c28.6-19.2,71.8-48.3,71.2-67c-2-34.6,0.4-83.1,0.4-83.6l9,0.4c0,0.5-2.4,48.6-0.4,82.7l0,0.1c0.8,23.7-41.3,52-75.2,74.8
					c-2.1,1.4-4.2,2.8-6.2,4.2L178.2,240z"/>
			</g>
		</g>
	</g>
	<g id="Group_2_" transform="translate(57.000000, 304.000000)">
		<g id="Triangle-9">
			<path fill="#010101" d="M144.7,210.4l51.3-26.4c0,0-34.3,9.6-51.5,9.6c-17,0-51.2-9.6-51.2-9.6L144.7,210.4z"/>
		</g>
		<g id="Path-208_1_">
			<path fill="#010101" d="M67.5,191.7l-7.1-5.6c0.4-0.5,3.9-5.4,0.3-9.6c-3.5-4-9,0-9.3,0.2l-5.4-7.2c0.3-0.2,3.1-2.2,6.9-3.2
				c5.7-1.5,10.8,0.1,14.5,4.3C74.4,178.6,70.5,187.9,67.5,191.7z"/>
		</g>
		<g id="Path-209_1_">
			<path fill="#010101" d="M87.7,208.3l-7.7-4.7c0.3-0.6,3.2-5.9-0.9-9.6c-4-3.6-9,1.1-9.2,1.3l-6.2-6.5c0.3-0.3,2.8-2.6,6.4-4
				c5.5-2.1,10.8-1.2,14.9,2.5C93,194.4,90.3,204.1,87.7,208.3z"/>
		</g>
		<g id="Path-210_1_">
			<path fill="#010101" d="M109,224.9l-7.7-4.7c0.3-0.6,3.2-5.9-0.9-9.6c-3.8-3.4-8.7,0.8-9.2,1.3l-6.2-6.5c0.3-0.3,2.8-2.6,6.4-4
				c5.5-2.1,10.8-1.2,14.9,2.5C114.3,211,111.5,220.8,109,224.9z"/>
		</g>
		<g id="Path-211_2_">
			<path fill="#010101" d="M133.4,236.1l-8.4-3.3c0.2-0.6,2.2-6.3-2.5-9.3c-4.3-2.7-8.4,2.3-8.8,2.9l-7.2-5.4c0.2-0.3,2.3-3,5.6-5.1
				c5-3.1,10.4-3.1,15.2-0.1C136.1,221.5,135.1,231.5,133.4,236.1z"/>
		</g>
		<g id="Path-215">
			<path fill="#010101" d="M220.9,191.8c-0.3-0.3-2.5-2.9-3.8-6.6c-1.9-5.5-0.9-10.8,3-14.9c7.3-7.6,16.9-4.5,21-1.8l-4.9,7.5
				c-0.6-0.3-5.7-3.5-9.6,0.5c-3.7,3.8,0.8,9,1,9.2L220.9,191.8z"/>
		</g>
		<g id="Path-212_2_">
			<path fill="#010101" d="M200.2,208.2c-0.2-0.3-2-3.2-2.7-7.1c-1.1-5.8,0.8-10.8,5.3-14.2c8.4-6.3,17.4-1.8,21,1.5l-6.1,6.7
				c-0.5-0.4-5.1-4.3-9.5-1c-4.2,3.2-0.6,9-0.4,9.3L200.2,208.2z"/>
		</g>
		<g id="Path-213_2_">
			<path fill="#010101" d="M178.7,224c-0.2-0.3-1.7-3.4-2.1-7.3c-0.5-5.8,1.8-10.7,6.6-13.7c8.9-5.6,17.5-0.3,20.8,3.3l-6.6,6.1
				c-0.4-0.5-4.7-4.7-9.4-1.8c-4.3,2.7-1.6,8.6-1.2,9.2L178.7,224z"/>
		</g>
		<g id="Path-214">
			<path fill="#010101" d="M154.5,232.6c0-0.4-0.4-3.8,0.7-7.6c1.6-5.6,5.5-9.3,11-10.4c10.3-2,16.4,6,18.2,10.6l-8.4,3.3
				c-0.3-0.6-2.7-6.1-8.2-5.1c-5,1-4.5,7.4-4.5,8.2L154.5,232.6z"/>
		</g>
		<g id="Line_3_">
			<rect x="111.1" y="72.6" fill="#010101" width="9" height="44.7"/>
		</g>
		<g id="Line-2_4_">
			<rect x="138.8" y="72.6" fill="#010101" width="9" height="44.7"/>
		</g>
		<g id="Line-3_4_">
			<rect x="166.6" y="72.6" fill="#010101" width="9" height="44.7"/>
		</g>
		<g id="Line-4_4_">
			<rect x="138.8" y="137.4" fill="#010101" width="9" height="22.7"/>
		</g>
	</g>
</g>
</svg>
