<?xml version="1.0" encoding="utf-8"?>
<!-- Generator: Adobe Illustrator 18.1.0, SVG Export Plug-In . SVG Version: 6.00 Build 0)  -->
<!DOCTYPE svg PUBLIC "-//W3C//DTD SVG 1.1//EN" "http://www.w3.org/Graphics/SVG/1.1/DTD/svg11.dtd">
<svg version="1.1" id="Layer_1" xmlns="http://www.w3.org/2000/svg" xmlns:xlink="http://www.w3.org/1999/xlink" x="0px" y="0px"
	 viewBox="0 0 400 600" enable-background="new 0 0 400 600" xml:space="preserve">
<g>
	<g id="Path-43-_x2B_-Path-46" transform="translate(22.000000, 0.000000)" sketch:type="MSShapeGroup">
		<g id="Path-43">
			<path fill="#010101" d="M65.5,311.5l-8.9-4.6c21.8-42.3,3.9-70.9-6.8-88c-1.8-2.9-3.3-5.3-4.5-7.5c-3.9-7.4-9-19-8.7-33.2
				c0.3-16.3,7.7-32.6,22-48.4c13.5-15,37.6-25.4,71.6-31c24.9-4.1,45.6-3.9,46.5-3.9l-0.1,10c-0.8,0-81.7-0.4-110.5,31.5
				c-30.7,34.1-17,60.4-11.8,70.3c1,1.9,2.4,4.2,4.1,6.9C69.3,231.2,89.9,264.2,65.5,311.5z"/>
		</g>
		<g id="Path-46">
			<path fill="#010101" d="M287.8,310.8c-25.3-49.1-6-83,3.3-99.2c1.1-1.9,2-3.5,2.7-4.9c5.2-9.9,18.9-36.2-11.8-70.3
				c-28.8-32-104.7-31.5-105.4-31.5l-0.1-10c0.8,0,20.4-0.2,44,3.9c32.3,5.6,55.5,16,69,30.9c35.4,39.3,18.7,71.2,13.2,81.6
				c-0.8,1.6-1.8,3.3-2.9,5.2c-9.1,15.9-25.9,45.4-3.1,89.7L287.8,310.8z"/>
		</g>
	</g>
	<g id="Path-44-_x2B_-Path-46" transform="translate(0.000000, 105.000000)" sketch:type="MSShapeGroup">
		<g id="Path-44">
			<path fill="#010101" d="M195.6,335.3c-15.4,0-36.7-0.7-42.5-4.3c-5.2-3.2-7.1-11.6-9.7-22.1c-1.8-7.7-4.1-17.2-7.3-20.6
				c-4.4-4.6-36.3-12.5-63.3-17.1l-0.6-0.1c-4.7-1.4-28.2-9.1-30.1-22.9c-0.9-6.7,3.1-12.9,12-18.5c27.4-17.3,53.6-84.7,50.5-102.1
				c-2.4-13.5-27.7-24.8-37.3-28.1l3.2-9.5c4.1,1.4,40.1,14.1,44,35.8c2.2,12.3-5.7,37.4-14.4,56.8c-17,37.6-34,51.3-40.6,55.4
				c-5,3.2-7.7,6.4-7.4,8.7c0.7,5.3,13.6,11.8,22.7,14.6c14.3,2.5,60,10.9,68.6,20c5.1,5.3,7.5,15.4,9.8,25.2
				c1.3,5.4,3.5,14.5,5.3,16c3.8,2.1,27.8,3.1,47.8,2.7l0.2,10C203.6,335.3,199.8,335.3,195.6,335.3z"/>
		</g>
		<g id="Path-46_1_">
			<path fill="#010101" d="M202.1,335.3c-4.2,0-7.9-0.1-10.8-0.1l0.2-10c20,0.4,44-0.5,47.8-2.7c1.8-1.4,3.9-10.5,5.2-15.9
				c2.3-9.7,4.7-19.8,9.8-25.2c8.6-9.1,54.3-17.5,68.6-20c8.8-2.7,22-9.1,22.8-14.6c0.3-2.3-2.4-5.5-7.4-8.7
				c-6.5-4.1-23.6-17.8-40.6-55.4c-8.8-19.4-16.6-44.5-14.4-56.8c3.7-21.1,39-42.9,43-45.3l5.2,8.6c-9.8,5.9-35.8,24.4-38.3,38.5
				c-3.1,17.3,23.1,84.7,50.5,102.1c8.9,5.6,12.9,11.8,12,18.5c-1.9,13.8-25.4,21.5-30.1,22.9l-0.6,0.1c-27.1,4.6-59,12.5-63.3,17.1
				c-3.2,3.4-5.5,12.9-7.3,20.6c-2.5,10.6-4.5,18.9-9.7,22.1C238.8,334.6,217.5,335.3,202.1,335.3z"/>
		</g>
	</g>
	<g id="Path-45-_x2B_-Path-46" transform="translate(46.000000, 325.000000)" sketch:type="MSShapeGroup">
		<g id="Path-45">
			<path fill="#010101" d="M157.8,218c-26.2,0-29.5-2.9-37.2-12.9l-0.9-1.1c-7-9.1-28.9-25.3-55.6-37.4
				c-26.1-11.8-28-21.1-27.6-31.2c0-0.6,0-1.3,0-1.9c0-5.1,5.3-13.9,17.3-33c5.1-8.1,12.1-19.2,12.9-22.1
				c-0.2-3.8-3.9-14.9-6.6-21.7l9.3-3.6c1.2,3.1,7.3,18.9,7.3,25.6c0,3.9-3.8,10.2-14.5,27.2c-5.7,9-15.3,24.2-15.8,27.8
				c0,0.7,0,1.4-0.1,2.2c-0.2,6-0.4,11.7,21.7,21.7c28.4,12.9,51.4,30.1,59.4,40.4l0.9,1.2c5.8,7.6,6.9,9,29.3,9V218z"/>
		</g>
		<g id="Path-46_2_">
			<path fill="#010101" d="M157.2,218v-10c22.4,0,23.4-1.4,29.3-9l0.9-1.2c6.2-8,20.7-26.8,50.7-40.4c22.1-10,22-15.7,21.7-21.7
				c0-0.7,0-1.4-0.1-2.2c-0.5-3.6-10.1-18.7-15.8-27.8c-10.7-17-14.5-23.3-14.5-27.2c0-6.7,6-22.5,7.3-25.6l9.3,3.6
				c-2.7,6.8-6.4,17.9-6.6,21.7c0.8,3,7.8,14,12.9,22.1c12,19.1,17.3,28,17.3,33c0,0.6,0,1.3,0,1.9c0.3,10-1.5,19.3-27.6,31.2
				c-27.8,12.6-41.2,30-46.9,37.4l-0.9,1.1C186.8,215.2,183.4,218,157.2,218z"/>
		</g>
	</g>
	
		<g id="espiral-2" transform="translate(175.500000, 55.500000) scale(1, -1) translate(-175.500000, -55.500000) translate(92.000000, 6.000000)" sketch:type="MSShapeGroup">
		<g id="Path-30_1_">
			<path fill="#010101" d="M79.3-82.9c-6.6,0-12.9,2.9-16.4,6.6c-6,6.2-13.8,20.6-9,32.6c2.7,8.7,11.8,13.8,20.5,11.5
				c4.9-1.3,8.8-4.8,10.8-9.9c2.1-5.3,2.3-12,0.4-20l-9.7,2.3c2.3,9.8,0.8,16.6-4,17.9c-3.1,0.8-7.2-0.9-8.4-4.9l-0.2-0.5
				c-2.8-6.9,2.2-17.3,6.9-22.1c1.7-1.7,6.9-4.4,11.9-3.2c4.5,1.1,7.8,5.2,9.8,12.2c4.7,16.5-15.3,47.5-23.5,58.1l7.9,6.1
				c0.3-0.4,8-10.5,15-23.5c9.8-18.2,13.2-32.8,10.1-43.5c-3.8-13.3-11.4-17.8-17-19.2C82.7-82.8,81-82.9,79.3-82.9z"/>
		</g>
		<g id="Path-31_1_">
			<path fill="#010101" d="M134.1-82.9c-1.7,0-3.4,0.2-5.1,0.6c-5.7,1.4-13.2,5.9-17,19.2c-3.1,10.6,0.3,25.3,10.1,43.5
				c7,13,14.7,23.1,15,23.5l7.9-6.1c-8.1-10.6-28.2-41.6-23.5-58.1c2-7,5.3-11.1,9.8-12.2c5-1.3,10.3,1.5,11.9,3.2
				c4.7,4.8,9.7,15.2,6.9,22.1l-0.2,0.5c-1.2,4-5.3,5.7-8.4,4.9c-4.8-1.3-6.3-8.1-4-17.9l-9.7-2.3c-1.9,8-1.8,14.7,0.4,20
				c2,5.1,5.9,8.6,10.8,9.9c8.7,2.3,17.8-2.9,20.5-11.5c4.7-12-3-26.4-9-32.6C147-80,140.8-82.9,134.1-82.9z"/>
		</g>
	</g>
	<g id="nariz-2">
		<path fill="#010101" d="M248.3,515.1c-20.8-12.3-42.8-16.3-65.2-11.7c-16.9,3.4-27.9,10.7-28,10.7l-5.6-8.3
			c0.5-0.3,12.4-8.3,31.1-12.2c17.3-3.6,43.9-4.3,72.8,12.9L248.3,515.1z"/>
	</g>
	<g id="Group_1_" transform="translate(135.000000, 360.000000)" sketch:type="MSShapeGroup">
		<g id="Line_2_">
			<rect x="33.5" y="44.7" fill="#010101" width="10" height="30"/>
		</g>
		<g id="Line-2_3_">
			<rect x="50.8" y="44.7" fill="#010101" width="10" height="30"/>
		</g>
		<g id="Line-3_3_">
			<rect x="68.1" y="44.7" fill="#010101" width="10" height="30"/>
		</g>
		<g id="Line-4_3_">
			<rect x="85.4" y="44.7" fill="#010101" width="10" height="30"/>
		</g>
		<g id="Line-8_1_">
			<rect x="24.9" y="75" fill="#010101" width="10" height="30"/>
		</g>
		<g id="Line-5_1_">
			<rect x="42.1" y="75" fill="#010101" width="10" height="30"/>
		</g>
		<g id="Line-6_1_">
			<rect x="59.4" y="75" fill="#010101" width="10" height="30"/>
		</g>
		<g id="Line-7_1_">
			<rect x="76.7" y="75" fill="#010101" width="10" height="30"/>
		</g>
		<g id="Line-9">
			<rect x="94" y="75" fill="#010101" width="10" height="30"/>
		</g>
	</g>
	<g id="Path-60-_x2B_-Path-61" transform="translate(52.000000, 361.000000)" sketch:type="MSShapeGroup">
		<g id="Path-60">
			<polygon fill="#010101" points="40.7,92.5 39,82.7 66.3,78 58.4,51.4 68,48.6 79.1,86 			"/>
		</g>
		<g id="Path-61">
			<polygon fill="#010101" points="253.3,92.5 214.9,86 226,48.6 235.6,51.4 227.7,78 255,82.7 			"/>
		</g>
	</g>
	<g id="cuernos_1_" transform="translate(49.000000, 1.000000)" sketch:type="MSShapeGroup">
		<g id="Path-3">
			<path fill="#010101" d="M136.8,98.9l13.2,38.8l13.2-38.8H136.8z"/>
		</g>
		<g id="Path-4">
			<path fill="#010101" d="M240,113.2l-16.8,37.4l36.1-19.4L240,113.2z"/>
		</g>
		<g id="Path-5">
			<path fill="#010101" d="M60,113.2l16.8,37.4l-36.1-19.4L60,113.2z"/>
		</g>
	</g>
</g>
</svg>
